# xmcd
#
# Track frame offsets: 
#        150
#        17070
#        42444
#        66812
#        72311
#        89610
#        94888
#        123702
#        156678
#        179942
#
# Disc length: 2580 seconds
#
# Revision: 0
# Processed by: cddbd v1.5.2PL0 Copyright (c) Steve Scherf et al.
# Submitted via: ExactAudioCopy v1.0b2
#
DISCID=9c0a120a
DTITLE=B.B. King and Larry Carlton - In Session
DYEAR=2019
DGENRE=Blues
TTITLE0=Medium Blues In C
TTITLE1=Hummingbird
TTITLE2=Blues Jam 1
TTITLE3=Theme From 'Hill Street Blues'
TTITLE4=Paying The Cost To Be Boss
TTITLE5=Blues Jam 2
TTITLE6=The Thrill Is Gone
TTITLE7=Blues Shuffle In G
TTITLE8=Rock Me Baby
TTITLE9=It's Just A Matter Of Time
EXTD=
EXTT0=
EXTT1=
EXTT2=
EXTT3=
EXTT4=
EXTT5=
EXTT6=
EXTT7=
EXTT8=
EXTT9=
PLAYORDER=
